<svg xmlns="http://www.w3.org/2000/svg" xmlns:xlink="http://www.w3.org/1999/xlink" viewBox="0 0 136.48 136.48"><defs><style>.cls-1{fill:#fff;}.cls-2{fill:url(#linear-gradient);}.cls-3{fill:url(#linear-gradient-2);}.cls-4{fill:url(#linear-gradient-3);}.cls-5{fill:url(#linear-gradient-4);}.cls-6{fill:url(#linear-gradient-5);}.cls-7{fill:url(#linear-gradient-6);}</style><linearGradient id="linear-gradient" x1="36.36" y1="49.28" x2="31.87" y2="70.75" gradientUnits="userSpaceOnUse"><stop offset="0" stop-color="#f7451f"/><stop offset="1" stop-color="#c51b2b"/></linearGradient><linearGradient id="linear-gradient-2" x1="48.37" y1="79.23" x2="26.6" y2="109.31" gradientUnits="userSpaceOnUse"><stop offset="0" stop-color="#4d81ff"/><stop offset="0.51" stop-color="#a76a8b"/><stop offset="1" stop-color="#fe5319"/></linearGradient><linearGradient id="linear-gradient-3" x1="48.36" y1="79.32" x2="28.98" y2="106.1" gradientUnits="userSpaceOnUse"><stop offset="0" stop-color="#d81c28"/><stop offset="1" stop-color="#fe5319"/></linearGradient><linearGradient id="linear-gradient-4" x1="105.15" y1="125.97" x2="76.51" y2="96.69" gradientUnits="userSpaceOnUse"><stop offset="0" stop-color="#03b0e5"/><stop offset="0.21" stop-color="#03abe0"/><stop offset="0.44" stop-color="#039ed3"/><stop offset="0.69" stop-color="#0388bc"/><stop offset="0.95" stop-color="#036a9c"/><stop offset="1" stop-color="#036395"/></linearGradient><linearGradient id="linear-gradient-5" x1="20.93" y1="15.21" x2="88.96" y2="59.67" gradientUnits="userSpaceOnUse"><stop offset="0" stop-color="#08a0dd"/><stop offset="1" stop-color="#036395"/></linearGradient><linearGradient id="linear-gradient-6" x1="89.02" y1="63.86" x2="121.02" y2="82.08" gradientUnits="userSpaceOnUse"><stop offset="0" stop-color="#08a0dd"/><stop offset="0.29" stop-color="#089dda"/><stop offset="0.5" stop-color="#0795d0"/><stop offset="0.7" stop-color="#0687c0"/><stop offset="0.88" stop-color="#0474a9"/><stop offset="1" stop-color="#036395"/></linearGradient></defs><title>radicalwhite</title><g id="Layer_2" data-name="Layer 2"><g id="Layer_1-2" data-name="Layer 1"><rect class="cls-1" width="136.48" height="136.48"/><path class="cls-2" d="M44.34,76.29l0,.07L44,76.3A32.61,32.61,0,0,1,24.78,65.44v-26Z"/><path class="cls-3" d="M61.17,108H24.78V65.38A32.61,32.61,0,0,0,44,76.24l.32.07Z"/><path class="cls-4" d="M61.21,108.07H24.78V65.38A32.61,32.61,0,0,0,44,76.24l.32.07L61.17,108Z"/><path class="cls-5" d="M112.51,123.48H81.88s-4.77-.17-7-5.62c-.56-1.38-4.4-8.7-9.85-18.89.46,0,16.2.73,30.27-7Z"/><path class="cls-6" d="M97,43A39.06,39.06,0,0,1,91.83,58,36.89,36.89,0,0,1,89.13,62a27.84,27.84,0,0,0,.76-6.9c-.06-3.58-.16-10-4.79-14.49a17.06,17.06,0,0,0-9.19-4.28,46.91,46.91,0,0,0-5.81-.19c-2.41,0-4.41.09-5.8.17q9,16.18,18.07,32.38a45,45,0,0,1-15.58,7.75c-1.94.34-4.07.62-6.35.81-2.49.2-4.82.26-6.94.23C37.69,48.13,19,13.75,19,13.75h60.3s11,2.59,15.55,13.14A27,27,0,0,1,96.53,33,36.29,36.29,0,0,1,97,43Z"/><path class="cls-7" d="M102.94,87.29A59,59,0,0,1,95.34,92l0,0C81.23,99.75,65.49,99,65,99h0L55.78,81.8l-1.44-2.68-.92-1.7c2.12,0,4.45,0,6.94-.23,2.28-.19,4.41-.47,6.35-.81a45,45,0,0,0,15.58-7.75h0l.09-.07,0,0,.21-.16a39.38,39.38,0,0,0,6.41-6.43A36.89,36.89,0,0,0,91.75,58,39.06,39.06,0,0,0,97,43a36.29,36.29,0,0,0-.51-10,27,27,0,0,0-1.72-6.06C90.14,16.34,79.2,13.75,79.18,13.75h.17c2.89.35,33.86,4.72,37.91,35.38C119,70,109.93,81.57,102.94,87.29Z"/></g></g></svg>