<svg xmlns="http://www.w3.org/2000/svg" xmlns:xlink="http://www.w3.org/1999/xlink" viewBox="0 0 98.51 109.73"><defs><style>.cls-1{fill:url(#linear-gradient);}.cls-2{fill:url(#linear-gradient-2);}.cls-3{fill:url(#linear-gradient-3);}.cls-4{fill:url(#linear-gradient-4);}.cls-5{fill:url(#linear-gradient-5);}.cls-6{fill:url(#linear-gradient-6);}</style><linearGradient id="linear-gradient" x1="17.4" y1="35.53" x2="12.91" y2="56.99" gradientUnits="userSpaceOnUse"><stop offset="0" stop-color="#f7451f"/><stop offset="1" stop-color="#c51b2b"/></linearGradient><linearGradient id="linear-gradient-2" x1="29.42" y1="65.48" x2="7.64" y2="95.56" gradientUnits="userSpaceOnUse"><stop offset="0" stop-color="#4d81ff"/><stop offset="0.51" stop-color="#a76a8b"/><stop offset="1" stop-color="#fe5319"/></linearGradient><linearGradient id="linear-gradient-3" x1="29.4" y1="65.57" x2="10.02" y2="92.34" gradientUnits="userSpaceOnUse"><stop offset="0" stop-color="#d81c28"/><stop offset="1" stop-color="#fe5319"/></linearGradient><linearGradient id="linear-gradient-4" x1="86.2" y1="112.22" x2="57.55" y2="82.94" gradientUnits="userSpaceOnUse"><stop offset="0" stop-color="#03b0e5"/><stop offset="0.21" stop-color="#03abe0"/><stop offset="0.44" stop-color="#039ed3"/><stop offset="0.69" stop-color="#0388bc"/><stop offset="0.95" stop-color="#036a9c"/><stop offset="1" stop-color="#036395"/></linearGradient><linearGradient id="linear-gradient-5" x1="1.98" y1="1.46" x2="70.01" y2="45.92" gradientUnits="userSpaceOnUse"><stop offset="0" stop-color="#08a0dd"/><stop offset="1" stop-color="#036395"/></linearGradient><linearGradient id="linear-gradient-6" x1="70.06" y1="50.11" x2="102.06" y2="68.33" gradientUnits="userSpaceOnUse"><stop offset="0" stop-color="#08a0dd"/><stop offset="0.29" stop-color="#089dda"/><stop offset="0.5" stop-color="#0795d0"/><stop offset="0.7" stop-color="#0687c0"/><stop offset="0.88" stop-color="#0474a9"/><stop offset="1" stop-color="#036395"/></linearGradient></defs><title>radical</title><g id="Layer_2" data-name="Layer 2"><g id="Layer_1-2" data-name="Layer 1"><path class="cls-1" d="M25.39,62.54l0,.07-.28-.06A32.61,32.61,0,0,1,5.83,51.69v-26Z"/><path class="cls-2" d="M42.22,94.24H5.83V51.63A32.61,32.61,0,0,0,25.07,62.49l.32.07Z"/><path class="cls-3" d="M42.26,94.32H5.83V51.63A32.61,32.61,0,0,0,25.07,62.49l.32.07L42.22,94.24Z"/><path class="cls-4" d="M93.56,109.73H62.93s-4.77-.17-7-5.62c-.56-1.38-4.4-8.7-9.85-18.89.46,0,16.2.73,30.27-7Z"/><path class="cls-5" d="M78.08,29.23a39.06,39.06,0,0,1-5.21,15.06,36.89,36.89,0,0,1-2.7,3.91,27.84,27.84,0,0,0,.76-6.9c-.05-3.58-.15-10-4.78-14.49A17.09,17.09,0,0,0,57,22.53a47.08,47.08,0,0,0-5.81-.19c-2.42,0-4.42.09-5.81.17L63.41,54.89a45,45,0,0,1-15.58,7.75c-1.94.34-4.07.62-6.35.81-2.49.2-4.82.26-6.94.23C18.73,34.38,0,0,0,0H60.3s11,2.59,15.55,13.14a27,27,0,0,1,1.72,6.06A36.29,36.29,0,0,1,78.08,29.23Z"/><path class="cls-6" d="M84,73.54a59,59,0,0,1-7.6,4.73l0,0c-14.07,7.71-29.81,7-30.27,7h0L36.82,68.05l-1.44-2.68-.92-1.7c2.12,0,4.45,0,6.94-.23,2.28-.19,4.41-.47,6.35-.81a45,45,0,0,0,15.58-7.75h0l.09-.07,0,0,.21-.16a39.38,39.38,0,0,0,6.41-6.43,36.89,36.89,0,0,0,2.7-3.91A39.06,39.06,0,0,0,78,29.22a36.29,36.29,0,0,0-.51-10,27,27,0,0,0-1.72-6.06C71.18,2.59,60.24,0,60.22,0h.17C63.28.36,94.25,4.73,98.3,35.39,100,56.27,91,67.82,84,73.54Z"/></g></g></svg>